<?xml version="1.0" encoding="utf-8"?>
<!-- Generator: Adobe Illustrator 27.5.0, SVG Export Plug-In . SVG Version: 6.00 Build 0)  -->
<svg version="1.1" id="Layer_1" xmlns="http://www.w3.org/2000/svg" xmlns:xlink="http://www.w3.org/1999/xlink" x="0px" y="0px"
	 viewBox="0 0 4000 4000" style="enable-background:new 0 0 4000 4000;" xml:space="preserve">
<g>
	<g>
		<rect style="fill:#45E5FF;" width="4000" height="4000"/>
	</g>
	<g>
		<g style="opacity:0.2;">
			
				<ellipse transform="matrix(0.9997 -0.0242 0.0242 0.9997 -77.3792 49.5803)" style="fill:#650000;" cx="2006.137" cy="3216.118" rx="1406.056" ry="134.057"/>
		</g>
		<g>
			<path style="fill:#FF761A;" d="M2907.335,3078.559c76.566,61.053,200.043,118.832,323.11,4.482
				c127.767-118.713,159.63-277.753,166.007-376.663c1.465-23.085,4.613-45.919,9.351-68.426
				c11.388-54.005,32.157-105.719,62.093-152.516c35.543-55.595,80.683-115.412,127.103-148.797c0,0-247.306-64.777-482.784,163.267
				c-90.401,87.509-179.038,218.192-251.246,412.242C2838.777,2971.792,2857.569,3038.894,2907.335,3078.559z"/>
		</g>
		<g>
			<path style="fill:#FFFFFF;" d="M3118.517,2558.302c3.931-4.136,8.146-7.942,12.289-11.34c6.493-5.327,15.789,1.491,12.617,9.268
				c-11.798,28.928-14.737,54.445-14.91,71.963c-0.077,7.849,10.007,11.039,14.629,4.695c11.444-15.711,23.204-27.146,33.214-35.22
				c6.61-5.332,15.954,1.956,12.38,9.661c-27.362,58.991-25.011,106.452-19.941,132.612c1.483,7.652,11.894,8.876,15.215,1.824
				c22.986-48.796,52.374-83.979,71.251-103.559c5.51-5.715,15.043-0.829,13.733,7.001c-3.945,23.569-4.371,43.261-3.588,58.001
				c0.433,8.168,11.386,10.502,15.198,3.265c10.559-20.042,25.886-42.42,37.667-58.658c4.675-6.444,14.896-2.917,14.579,5.038
				c-0.88,22.088,0.852,43.325,2.78,58.932c0.955,7.733,11.267,9.765,15.037,2.946c15.936-28.818,36.409-55.221,53.821-75.269
				c0.874-1.006,1.459-2.193,1.739-3.496c11.475-53.287,32.101-104.307,61.67-150.53c32.021-50.087,71.832-103.599,113.351-138.125
				c5.333-4.435,2.938-13.041-3.91-14.14c-60.38-9.691-265.78-25.013-463.324,164.999c-1.166,1.121-1.997,2.592-2.345,4.172
				c-4.137,18.797-6.092,36.337-6.995,49.858C3104.173,2559.687,3113.348,2563.741,3118.517,2558.302z"/>
		</g>
		<g style="opacity:0.3;">
			<path style="fill:#650000;" d="M3111.126,3015.674c144.135-98.195,199.504-250.653,220.652-347.485
				c4.912-22.604,11.451-44.707,19.513-66.248c19.363-51.685,47.658-99.697,84.278-141.471
				c42.771-48.819,95.33-100.224,145.485-126.679c9.056,1.567,13.945,2.847,13.945,2.847
				c-46.42,33.386-91.56,93.202-127.104,148.797c-29.936,46.797-50.705,98.511-62.093,152.516
				c-4.738,22.507-7.886,45.34-9.351,68.426c-6.377,98.909-38.24,257.95-166.007,376.663
				c-123.067,114.351-246.544,56.572-323.11-4.481c-18.688-14.896-33.007-33.661-42.43-54.447
				C2929.739,3064.773,3014.238,3081.684,3111.126,3015.674z"/>
		</g>
		<g>
			<path style="fill:#650000;" d="M3079.026,3164.109c-58.941,0-120.43-24.385-181.58-73.135
				c-55.325-44.111-75.95-118.203-51.323-184.365l0,0c60.122-161.533,136.765-292.856,227.803-390.327
				c73.369-78.555,156.184-135.439,246.15-169.073c153.892-57.534,273.906-27.241,278.94-25.918
				c5.945,1.553,10.454,6.401,11.577,12.446c1.123,6.04-1.345,12.183-6.333,15.771c-37.1,26.685-79.638,76.641-123.013,144.453
				c-40.173,62.813-64.026,136.616-68.979,213.442c-7.144,110.811-42.617,267.949-171.04,387.271
				C3191.401,3140.969,3136.421,3164.109,3079.026,3164.109z M2875.85,2917.673c-19.829,53.281-3.203,112.959,41.372,148.496
				c75.632,60.298,189.504,110.166,302.414,5.264c120.779-112.212,154.204-261.006,160.977-366.07
				c5.3-82.163,30.857-161.172,73.911-228.491c35.899-56.123,70.572-99.756,103.452-130.22
				c-44.539-4.849-129.778-6.411-228.616,30.957C3137.131,2450.271,2980.31,2637.024,2875.85,2917.673L2875.85,2917.673z"/>
		</g>
		<g>
			<path style="fill:#FF761A;" d="M2147.774,2238.519c-9.039-10.859-25.24-12.093-35.804-2.711
				c-43.598,38.718-151.9,129.985-221.375,161.564c-87.083,39.583-249.181,106.874-210.683,237.498
				c38.498,130.624,272.037,146.457,341.307,21.771c43.11-77.598,142.944-149.83,212.202-193.32
				c36.711-23.053,43.148-73.939,13.557-105.618L2147.774,2238.519z"/>
		</g>
		<g style="opacity:0.3;">
			<path style="fill:#650000;" d="M2246.978,2357.702l-12.132-14.575c-1.343,21.173-12.235,41.618-31.971,54.011
				c-69.258,43.49-169.092,115.722-212.202,193.32c-59.69,107.442-241.251,110.46-314.99,25.685
				c0.955,6.095,2.343,12.332,4.228,18.726c38.497,130.624,272.037,146.457,341.307,21.771
				c43.11-77.598,142.944-149.83,212.202-193.32C2270.132,2440.267,2276.568,2389.381,2246.978,2357.702z"/>
		</g>
		<g style="opacity:0.7;">
			<path style="fill:#FFFFFF;" d="M1715.548,2650.142c-38.498-130.624,123.601-197.915,210.683-237.498
				c69.475-31.58,177.777-122.847,221.375-161.564c2.143-1.903,4.552-3.254,7.052-4.292l-6.883-8.27
				c-9.039-10.859-25.24-12.093-35.805-2.711c-43.598,38.717-151.9,129.985-221.375,161.564
				c-87.083,39.583-249.181,106.874-210.683,237.498c14.179,48.11,54.848,80.587,103.991,96.269
				C1751.4,2713.113,1726.109,2685.978,1715.548,2650.142z"/>
		</g>
		<g>
			<path style="fill:#650000;" d="M1869.554,2745.21c-2.839-6.052-4.393-11.265-5.926-17.019
				c-1.432-5.657-2.469-11.387-3.096-17.197c-1.26-11.602-1.21-23.457,0.547-35.212c1.894-11.755,5.405-23.411,10.827-34.087
				c5.585-10.652,13.47-20.068,22.9-26.726c1.1-0.776,2.621-0.515,3.398,0.586c0.457,0.647,0.554,1.44,0.333,2.144l-0.06,0.183
				c-3.419,10.593-5.767,20.288-6.818,30.129c-0.81,9.905-0.822,19.563-0.162,29.27c0.881,9.729,2.058,19.402,3.608,29.104
				c0.355,2.429,0.699,4.858,1.192,7.275c0.342,2.439,0.715,4.873,1.19,7.285c0.674,4.761,1.739,9.985,2.141,14.18l0.173,1.809
				c0.839,8.748-5.574,16.521-14.323,17.358C1878.611,2754.951,1872.336,2751.111,1869.554,2745.21z"/>
		</g>
		<g>
			<path style="fill:#650000;" d="M1721.424,2708.977c-1.476-6.519-1.877-11.946-2.141-17.893
				c-0.187-5.833,0.027-11.653,0.66-17.461c1.256-11.604,3.845-23.174,8.081-34.277c4.37-11.079,10.297-21.711,17.881-30.977
				c7.738-9.207,17.458-16.714,28.096-21.196c1.241-0.522,2.671,0.059,3.194,1.301c0.308,0.73,0.233,1.526-0.134,2.163l-0.097,0.166
				c-5.61,9.617-9.98,18.582-13.118,27.969c-2.913,9.502-4.995,18.931-6.431,28.555c-1.224,9.692-2.148,19.395-2.712,29.202
				c-0.173,2.449-0.358,4.897-0.395,7.361c-0.188,2.456-0.346,4.915-0.399,7.373c-0.361,4.795-0.441,10.125-0.948,14.309
				l-0.218,1.804c-1.056,8.723-8.985,14.941-17.71,13.887C1728.183,2720.432,1722.877,2715.337,1721.424,2708.977z"/>
		</g>
		<g>
			<path style="fill:#650000;" d="M1855.994,2757.951c-9.707,0-19.553-0.537-29.512-1.641
				c-81.179-8.984-143.171-53.804-161.782-116.958c-40.916-138.823,121.626-212.266,208.95-251.719l10.383-4.702
				c58.018-26.372,153.376-102.124,217.405-158.984c8.345-7.412,19.072-11.05,30.183-10.19c11.13,0.835,21.196,6.025,28.342,14.614
				l98.928,118.853c17.173,18.594,25.144,43.613,21.877,68.726c-3.274,25.166-17.456,47.329-38.913,60.805
				c-71.851,45.112-166.045,114.278-206.773,187.583C2002.541,2722.912,1934.148,2757.951,1855.994,2757.951z M2128.54,2245.359
				c-2.226,0-4.348,0.806-6.035,2.304c-23.779,21.118-146.384,128.257-225.347,164.146l-10.449,4.732
				c-113.691,51.367-222.134,110.19-191.584,213.848c17.852,60.566,81.362,88.472,134.849,94.395
				c63.42,7.012,142.859-13.711,177.38-75.845c43.999-79.199,142.634-151.958,217.634-199.048
				c13.41-8.423,22.278-22.285,24.326-38.032c2.063-15.854-3.015-31.646-13.928-43.33c-0.205-0.22-0.405-0.444-0.598-0.679
				l-99.204-119.185l0,0c-1.604-1.929-3.857-3.091-6.345-3.276C2129.006,2245.368,2128.772,2245.359,2128.54,2245.359z"/>
		</g>
		<g>
			<path style="fill:#FF761A;" d="M2499.067,2740.06c-22.043,465.662-389.961,459.095-556.534,431.859
				c-78.603-12.829-142.239-72.341-157.053-150.639c-1.018-5.294-1.833-10.589-2.444-15.833
				c-12.472-104.108,46.073-202.77,123.403-200.784c81.81,2.036,115.104,65.214,115.104,65.214
				c21.636-29.018,43.17-52.182,64.298-70.458c171.969-148.908,318.637,26.269,318.637,26.269l41.032-103.651l50.094-126.508
				C2500.137,2648.119,2501.104,2696.177,2499.067,2740.06z"/>
		</g>
		<g>
			<path style="fill:#650000;" d="M2035.195,2861.792c1.307,2.3,2.106,3.833,2.966,5.698c0.87,1.79,1.647,3.562,2.397,5.327
				c1.609,3.525,2.748,7.131,4.048,10.701c2.437,7.151,4.371,14.419,5.857,21.731c3.103,14.597,4.585,29.392,4.924,44.07
				c0.197,14.68-0.438,29.29-2.819,43.596c-1.918,14.341-5.647,28.308-9.792,41.917c-0.397,1.304-1.775,2.039-3.077,1.641
				c-1.1-0.334-1.794-1.37-1.746-2.468l0.009-0.176c0.316-7.041,1.061-13.96,1.177-20.913c-0.075-6.97,0.316-13.85-0.208-20.745
				l-0.54-10.281l-1.115-10.208c-0.305-3.394-0.845-6.76-1.389-10.115c-0.582-3.352-0.928-6.714-1.693-10.022
				c-2.454-13.308-6.461-26.191-10.831-38.684c-2.175-6.262-4.821-12.305-7.319-18.313c-1.332-2.947-2.715-5.911-4.099-8.748
				c-0.683-1.443-1.375-2.864-2.102-4.204l-1.938-3.633l-0.47-0.881c-4.119-7.722-1.198-17.322,6.524-21.44
				C2021.55,2851.592,2030.964,2854.365,2035.195,2861.792z"/>
		</g>
		<g>
			<g>
				
					<ellipse transform="matrix(0.0183 -0.9998 0.9998 0.0183 -1167.9928 4883.6685)" style="fill:#FFFFFF;" cx="1903.028" cy="3036.638" rx="61.597" ry="43.118"/>
			</g>
			<g>
				
					<ellipse transform="matrix(0.0183 -0.9998 0.9998 0.0183 -1098.2751 4729.0259)" style="fill:#FFFFFF;" cx="1859.147" cy="2923.816" rx="34.344" ry="24.041"/>
			</g>
			<g>
				
					<ellipse transform="matrix(0.0183 -0.9998 0.9998 0.0183 -1006.8621 4867.1724)" style="fill:#FFFFFF;" cx="1975.193" cy="2946.334" rx="34.344" ry="24.041"/>
			</g>
			<g>
				
					<ellipse transform="matrix(0.0183 -0.9998 0.9998 0.0183 -1014.4088 4765.7578)" style="fill:#FFFFFF;" cx="1919.786" cy="2899.472" rx="34.344" ry="24.041"/>
			</g>
		</g>
		<g style="opacity:0.3;">
			<path style="fill:#650000;" d="M2499.067,2740.06c-22.043,465.662-389.961,459.095-556.534,431.859
				c-78.603-12.829-142.239-72.341-157.053-150.639c-1.018-5.294-1.833-10.589-2.444-15.833
				c13.694,19.6,136.75,180.973,257.598,35.891c0,0,188.733,124.355,45.207-241.918c171.969-148.908,318.637,26.269,318.637,26.269
				l41.032-103.651C2465.926,2728.606,2484.151,2734.816,2499.067,2740.06z"/>
		</g>
		<g>
			<path style="fill:#650000;" d="M2402.449,2827.378c-29.283-23.691-60.708-43.877-93.989-57.693
				c-16.655-6.829-33.866-11.892-51.349-14.177c-17.467-2.3-35.083-1.924-52.238,1.028c-17.172,2.981-33.794,8.65-49.749,16.042
				l-11.687,6.235c-1.929,1.079-3.931,1.997-5.8,3.201l-5.596,3.635c-3.708,2.463-7.511,4.741-11.155,7.319l-10.732,8.086
				c-1.78,1.36-3.606,2.651-5.35,4.065l-5.093,4.458l-10.195,8.901c-6.626,6.169-13.036,12.642-19.517,19.016
				c-6.082,6.833-12.283,13.552-18.293,20.469c-5.699,7.222-11.628,14.26-17.448,21.404l-0.331,0.405
				c-5.565,6.831-15.614,7.856-22.444,2.292c-1.652-1.348-3-3.03-3.962-4.792h-0.001c-0.434-0.791-1.566-2.605-2.487-3.989
				c-1.016-1.472-2.051-2.974-3.152-4.436c-2.206-2.947-4.625-5.771-7.083-8.569c-5.053-5.496-10.624-10.503-16.504-15.088
				c-11.882-9.019-25.396-15.671-39.729-19.731c-3.611-0.933-7.156-2.112-10.903-2.563c-3.725-0.488-7.337-1.558-11.147-1.628
				c-3.741-0.222-7.612-0.627-11.243-0.752l-5.192,0.085l-5.157,0.513c-13.687,1.833-26.975,7.485-38.546,16.372
				c-23.404,17.649-39.901,45.581-49.275,75.164c-9.48,29.773-12.031,61.958-7.996,93.105c3.798,31.113,15.718,60.205,34.613,84.761
				c19.025,24.336,44.644,43.403,73.306,55.088l10.903,3.987c3.687,1.169,7.443,2.124,11.157,3.213
				c3.691,1.189,7.566,1.636,11.336,2.505c3.68,0.835,7.781,1.45,11.894,2.053c16.319,2.612,32.747,4.417,49.175,6.033
				c32.886,2.861,65.916,3.667,98.708,1.826c65.431-3.65,130.574-18.103,187.499-48.691
				c56.844-30.339,104.354-77.131,134.801-134.336l5.941-10.574c1.794-3.63,3.408-7.361,5.123-11.035
				c3.274-7.427,7.026-14.626,9.932-22.227l8.463-22.92l2.123-5.728l1.715-5.884l3.395-11.782l3.402-11.782l1.704-5.889l1.292-6.016
				l5.184-24.063c1.967-7.964,2.877-16.179,4.153-24.307l3.652-24.426c7.573-65.591,6.703-132.329,1.238-198.674l-0.01-0.11
				c-0.719-8.728,5.775-16.389,14.504-17.107c8.73-0.72,16.39,5.774,17.109,14.504c5.593,67.957,6.556,136.697-1.344,205.139
				l-3.811,25.579c-1.337,8.518-2.308,17.083-4.365,25.508l-5.466,25.361l-1.372,6.34l-1.797,6.255l-3.606,12.51l-3.613,12.505
				l-1.831,6.248l-2.257,6.128l-9.058,24.509c-3.121,8.132-7.137,15.94-10.676,23.921c-1.851,3.96-3.6,7.964-5.541,11.882
				l-6.421,11.475c-32.921,61.948-85.5,113.95-147.568,146.946c-62.162,33.367-131.899,48.557-200.719,52.41
				c-34.518,1.936-69.046,1.082-103.311-1.902c-17.111-1.677-34.203-3.562-51.173-6.277c-4.225-0.623-8.459-1.248-13.01-2.244
				c-4.442-0.999-8.979-1.592-13.334-2.952c-4.377-1.262-8.791-2.41-13.128-3.794l-12.839-4.692
				c-33.765-13.738-63.979-36.208-86.504-65.046c-22.382-28.818-36.718-64.294-41.024-100.142
				c-4.598-35.664-1.737-72.29,9.218-106.787c5.402-17.258,13.01-33.958,22.863-49.512c9.934-15.476,22.233-29.915,37.59-41.416
				c15.146-11.621,33.796-19.893,53.549-22.473l7.419-0.723l7.446-0.132c4.783,0.144,9.31,0.598,13.975,0.911
				c4.641,0.151,9.232,1.36,13.846,2.017c4.636,0.62,9.142,2.024,13.68,3.22c18.071,5.107,35.3,13.621,50.26,24.998
				c7.426,5.759,14.407,12.061,20.761,18.984c3.116,3.521,6.169,7.107,9.015,10.908c1.431,1.904,2.797,3.87,4.165,5.869
				c1.392,2.136,2.547,3.865,4.139,6.77l0.002,0.005l-26.736-2.095c5.938-7.747,11.768-15.593,17.827-23.262
				c6.335-7.48,12.913-14.797,19.373-22.197c6.94-7.021,13.813-14.121,20.995-20.945l11.311-9.736l5.662-4.858
				c1.949-1.555,4.003-3.005,6.001-4.509l12.076-8.933c4.099-2.891,8.518-5.386,12.769-8.079l6.437-3.96
				c2.152-1.309,4.486-2.356,6.721-3.542c4.53-2.285,9.014-4.646,13.585-6.843c18.595-8.308,38.451-14.116,58.784-16.909
				c40.84-5.933,82.692,2.957,118.273,20.649c17.861,8.906,34.358,20.081,49.139,32.966c14.756,12.927,28.087,27.246,38.668,43.789
				c0.785,1.226,0.427,2.856-0.8,3.643c-0.981,0.627-2.219,0.522-3.077-0.168L2402.449,2827.378z"/>
		</g>
		<g>
			<path style="fill:#FF761A;" d="M3035.544,2594.054c0.051,1.629,0.153,3.258,0.203,4.887
				c23.622,591.814-396.782,578.73-396.782,578.73c-160.108,0-276.18-29.273-359.416-76.465h-0.051c0,0-0.051,0-0.102-0.051
				c-21.483-12.218-40.778-25.607-58.087-40.014c-89.498-74.378-125.745-175.432-135.621-276.129
				c-0.051-0.509-0.153-1.069-0.153-1.629c-1.731-17.92-2.647-35.84-2.851-53.607c-1.68-142.036,40.116-273.125,47.141-314.616
				c18.836-111.286,0-183.271,0-183.271c155.068,77.025,421.219,51.825,654.126-6.923c189.38-47.803,356.819-117.854,424.68-173.192
				c69.694-56.814,126.865-70.712,168.253-69.185c42.611,1.578,78.654,29.527,93.163,68.269c2.596,6.974,4.531,14.305,5.651,21.891
				C3511.998,2315.889,3035.544,2594.054,3035.544,2594.054z"/>
		</g>
		<g>
			<path style="fill:#FFFFFF;" d="M2857.312,2517.792c0,281.933-181.591,510.462-405.59,510.462
				c-163.926,0-305.096-122.385-369.037-298.478c-1.68-142.036,40.116-273.125,47.141-314.616c18.836-111.286,0-183.271,0-183.271
				c155.068,77.025,421.219,51.825,654.126-6.923C2830.178,2307.845,2857.312,2408.797,2857.312,2517.792z"/>
		</g>
		<g>
			<path style="fill:#650000;" d="M3043.124,2607.993c-6.466,2.839-13.406,4.81-20.468,6.558c-3.558,0.82-7.119,1.641-10.8,2.239
				c-3.663,0.63-7.352,1.213-11.208,1.489c-2.78,0.198-5.195-1.895-5.393-4.675c-0.09-1.262,0.297-2.456,1.002-3.396
				c2.325-3.088,4.818-5.869,7.338-8.601c2.501-2.766,5.122-5.31,7.745-7.854c5.302-4.98,10.726-9.736,16.622-13.623
				c7.34-4.836,17.212-2.81,22.05,4.531c4.838,7.339,2.81,17.212-4.53,22.048
				C3044.746,2607.195,3043.903,2607.644,3043.124,2607.993z"/>
		</g>
		<g style="opacity:0.3;">
			<path style="fill:#650000;" d="M3035.544,2594.054c0.051,1.629,0.153,3.258,0.203,4.887
				c-16.545,3.462-27.949,7.738-33.141,13.033c0,0-120.348,69.338-54.32,263.555c0,0-156.646,407.677-668.737,225.678h-0.051
				c0,0-0.051,0-0.102-0.051c-1.934-0.916-26.727-12.625-58.087-40.014c-50.807-44.291-118.923-129.563-135.621-276.129
				c-0.102-0.56-0.153-1.12-0.204-1.68c0,0,0,0.051,0.051,0.051c4.582,5.905,274.5,348.877,629.283,15.781
				c0,0,138.93-143.614,89.09-487.451c0,0,89.701-30.596,156.29-94.487c0,0,12.289,34.26,27.25,84.869
				c33.21,112.339,170.764,155.174,260.764,80.187c93.552-77.947,189.523-188.879,221.837-331.425
				c2.596,6.974,4.531,14.305,5.651,21.891C3511.998,2315.889,3035.544,2594.054,3035.544,2594.054z"/>
		</g>
		<g>
			
				<ellipse transform="matrix(0.5426 -0.84 0.84 0.5426 -326.3962 3778.7085)" style="fill:#FFFFFF;" cx="3306.278" cy="2189.04" rx="61.597" ry="43.118"/>
		</g>
		<g>
			
				<ellipse transform="matrix(0.5426 -0.84 0.84 0.5426 -216.2874 3742.8884)" style="fill:#FFFFFF;" cx="3328.45" cy="2070.032" rx="34.344" ry="24.041"/>
		</g>
		<g>
			
				<ellipse transform="matrix(0.5426 -0.84 0.84 0.5426 -244.0529 3852.5022)" style="fill:#FFFFFF;" cx="3415.201" cy="2150.332" rx="34.344" ry="24.041"/>
		</g>
		<g>
			
				<ellipse transform="matrix(0.5426 -0.84 0.84 0.5426 -196.3175 3802.104)" style="fill:#FFFFFF;" cx="3392.814" cy="2081.305" rx="34.344" ry="24.041"/>
		</g>
		<g style="opacity:0.3;">
			<path style="fill:#650000;" d="M2136.574,2277.864c0,0,90.066,165.107,420.064,142.198s453.095-231.023,453.095-231.023
				S2631.776,2509.3,2136.574,2277.864z"/>
		</g>
		<g>
			<path style="fill:#650000;" d="M2641.719,3193.586c-1.716,0-2.813-0.029-3.24-0.039
				c-227.522,0.005-389.878-59.302-482.07-176.274c-143.242-181.748-78.618-450.669-51.023-565.503
				c4.099-17.056,7.337-30.528,8.811-39.258c17.93-106.094,0.466-175.957,0.288-176.65c-1.548-6.011,0.549-12.383,5.371-16.289
				c4.817-3.906,11.47-4.663,17.034-1.895c162.32,80.596,431.609,39.165,577.688,7.285
				c203.013-44.302,406.585-122.3,484.048-185.464c61.765-50.371,121.98-74.824,178.843-72.739
				c57.373,2.124,105.291,45.718,113.936,103.667c35.181,235.767-373.772,492.719-439.634,532.432
				c7.717,211.762-39.812,371.201-141.328,474.033C2800.166,3188.601,2664.868,3193.586,2641.719,3193.586z M2150.552,2258.425
				c4.038,32.1,7.019,87.793-5.075,159.37c-1.658,9.8-5.008,23.74-9.248,41.387c-26.521,110.361-88.625,368.794,45.093,538.452
				c85.872,108.955,239.848,164.199,457.649,164.199c1.858-0.01,140.813,2.607,249.299-107.632
				c96.294-97.852,140.513-252.432,131.431-459.448c-0.259-5.879,2.764-11.421,7.847-14.39
				c4.673-2.729,466.768-275.513,432.485-505.259c-6.396-42.851-41.611-75.088-83.735-76.645
				c-49.06-1.797-102.007,20.264-157.625,65.62c-82.173,67.007-286.682,145.908-497.332,191.875
				C2579.077,2286.994,2322.546,2326.579,2150.552,2258.425z"/>
		</g>
		<g>
			<path style="fill:#FF761A;" d="M2359.312,1181.284c0,0-324.773,50.662-511.97,453.558c0,0-15.317-63.124-22.386-163.587
				c-10.649-150.854-2.719-385.903,103.454-617.645c12.054-26.237,34.938-44.227,60.994-50.979
				c19.214-4.985,40.194-3.897,59.771,4.441C2151.179,850.62,2315.945,954.573,2359.312,1181.284z"/>
		</g>
		<g style="opacity:0.3;">
			<path style="fill:#650000;" d="M2359.312,1181.284c0,0-324.773,50.662-511.97,453.558c0,0-15.317-63.124-22.386-163.587
				c51.281-88.818,153.794-234.531,315.274-328.231c62.499-36.266,82.969-117.366,42.682-177.351
				c-39.125-58.256-100.46-122.959-193.508-163.042c19.214-4.985,40.194-3.897,59.771,4.441
				C2151.179,850.62,2315.945,954.573,2359.312,1181.284z"/>
		</g>
		<g style="opacity:0.7;">
			<path style="fill:#FFFFFF;" d="M1861.208,1471.255c-10.649-150.854-2.719-385.903,103.454-617.645
				c12.054-26.237,34.938-44.227,60.994-50.979c1.722-0.447,3.472-0.786,5.22-1.134c-13.97-2.779-28.144-2.323-41.472,1.134
				c-26.056,6.752-48.94,24.742-60.994,50.979c-106.173,231.741-114.103,466.791-103.454,617.645
				c7.069,100.463,22.386,163.587,22.386,163.587c8.502-18.297,17.294-35.847,26.32-52.72
				C1869.275,1554.356,1864.401,1516.632,1861.208,1471.255z"/>
		</g>
		<g>
			<path style="fill:#650000;" d="M1847.351,1650.705c-0.518,0-1.04-0.024-1.565-0.078c-6.709-0.659-12.266-5.493-13.855-12.046
				c-0.994-4.106-24.392-102.241-26.235-249.399c-1.702-135.801,15.706-340.107,108.296-542.197
				c24.265-52.959,87.688-77.397,141.409-54.487c99.909,42.642,274.272,149.463,319.49,385.82c0.808,4.224-0.134,8.594-2.612,12.109
				c-2.476,3.516-6.274,5.879-10.522,6.538c-0.774,0.127-80.474,13.286-181.448,74.448
				c-93.086,56.382-223.921,166.367-318.577,370.117C1859.111,1647.165,1853.472,1650.705,1847.351,1650.705z M2013.071,815.573
				c-29.27,0-57.451,16.709-70.242,44.624c-137.913,301.016-107.141,610.757-88.733,725.029
				c96.133-184.512,220.71-287.28,311.24-341.831c79.685-48.013,145.823-67.481,175.237-74.419
				c-46.897-211.279-205.703-308.071-297.624-347.3C2033.247,817.536,2023.093,815.573,2013.071,815.573z"/>
		</g>
		<g>
			<path style="fill:#FFFFFF;" d="M1928.752,1491.402c0,0-24.857-474.211,101.378-561.604c0,0,108.633,52.122,199.001,296.98
				C2229.131,1226.779,2075.959,1289.771,1928.752,1491.402z"/>
		</g>
		<g style="opacity:0.3;">
			<path style="fill:#650000;" d="M2073.594,1028.018c32.669,27.785,87.482,87.594,140.614,205.812
				c9.597-4.858,14.923-7.052,14.923-7.052c-90.368-244.858-199.001-296.98-199.001-296.98
				c-126.235,87.393-101.378,561.604-101.378,561.604c3.867-5.297,7.74-10.445,11.612-15.551
				c-0.083-126.446,9.779-347.985,75.41-440.406C2029.24,1016.483,2055.877,1012.95,2073.594,1028.018z"/>
		</g>
		<g>
			<path style="fill:#650000;" d="M1928.752,1507.263c-1.506,0-3.027-0.215-4.521-0.659c-6.433-1.914-10.967-7.666-11.316-14.37
				c-1.035-19.722-23.806-484.097,108.186-575.479c4.688-3.237,10.75-3.73,15.889-1.26c4.673,2.246,115.479,57.759,207.021,305.791
				c2.954,8.008-0.957,16.914-8.847,20.161c-1.477,0.61-151.138,64.175-293.601,259.307
				C1938.523,1504.919,1933.725,1507.263,1928.752,1507.263z M2031.377,948.991c-80.898,72.256-91.807,350.62-88.396,497.563
				c115.117-144.824,227.39-208.799,266.123-227.969C2137.417,1031.472,2056.794,965.905,2031.377,948.991z"/>
		</g>
		<g>
			<path style="fill:#650000;" d="M2021.195,942.903c-2.172-1.575-4.484-3.682-6.633-5.745c-2.164-2.119-4.304-4.307-6.376-6.638
				c-4.194-4.622-8.232-9.451-11.753-16.006l-0.062-0.115c-1.198-2.231-0.361-5.007,1.868-6.206c0.475-0.254,0.994-0.42,1.499-0.496
				c7.598-1.121,14.424-0.007,20.895,1.648c3.26,0.806,6.412,1.829,9.49,2.996c3.092,1.226,5.981,2.471,8.942,4.353
				c7.396,4.702,9.577,14.509,4.874,21.904c-4.703,7.395-14.51,9.578-21.906,4.876c-0.26-0.166-0.513-0.337-0.76-0.515
				L2021.195,942.903z"/>
		</g>
		<g>
			<path style="fill:#FF761A;" d="M2653.86,1181.284c0,0,324.773,50.662,511.969,453.558c0,0,15.317-63.124,22.386-163.587
				c10.649-150.854,2.719-385.903-103.454-617.645c-12.054-26.237-34.938-44.227-60.994-50.979
				c-19.214-4.985-40.195-3.897-59.771,4.441C2861.992,850.62,2697.226,954.573,2653.86,1181.284z"/>
		</g>
		<g style="opacity:0.3;">
			<path style="fill:#650000;" d="M2653.86,1181.284c0,0,324.773,50.662,511.969,453.558c0,0,15.317-63.124,22.386-163.587
				c-51.281-88.818-153.794-234.531-315.274-328.231c-62.498-36.266-82.969-117.366-42.682-177.351
				c39.125-58.256,100.46-122.959,193.508-163.042c-19.214-4.985-40.195-3.897-59.771,4.441
				C2861.992,850.62,2697.226,954.573,2653.86,1181.284z"/>
		</g>
		<g style="opacity:0.7;">
			<path style="fill:#FFFFFF;" d="M3151.963,1471.255c10.649-150.854,2.719-385.903-103.454-617.645
				c-12.054-26.237-34.938-44.227-60.994-50.979c-1.722-0.447-3.472-0.786-5.22-1.134c13.97-2.779,28.144-2.323,41.472,1.134
				c26.056,6.752,48.94,24.742,60.994,50.979c106.173,231.741,114.103,466.791,103.454,617.645
				c-7.069,100.463-22.386,163.587-22.386,163.587c-8.501-18.297-17.294-35.847-26.32-52.72
				C3143.896,1554.356,3148.77,1516.632,3151.963,1471.255z"/>
		</g>
		<g>
			<path style="fill:#650000;" d="M3165.82,1650.705c-6.123,0-11.76-3.54-14.38-9.175
				c-94.656-203.75-225.49-313.735-318.576-370.117c-100.974-61.162-180.674-74.321-181.467-74.448
				c-4.241-0.674-8.037-3.037-10.505-6.553c-2.469-3.516-3.416-7.881-2.61-12.095c45.215-236.348,219.578-343.174,319.49-385.815
				c53.711-22.93,117.143,1.523,141.406,54.482c92.591,202.09,110,406.396,108.299,542.197
				c-1.844,147.158-25.242,245.293-26.236,249.399c-1.589,6.553-7.146,11.387-13.855,12.046
				C3166.86,1650.681,3166.338,1650.705,3165.82,1650.705z M2672.597,1168.977c29.414,6.938,95.552,26.406,175.237,74.419
				c90.525,54.546,215.09,157.305,311.221,341.797c18.367-114.37,49.053-424.297-88.716-724.995
				c-17.166-37.476-62.075-54.766-100.117-38.521C2878.298,860.905,2719.492,957.707,2672.597,1168.977z"/>
		</g>
		<g>
			<path style="fill:#FFFFFF;" d="M3084.419,1491.402c0,0,24.857-474.211-101.378-561.604c0,0-108.633,52.122-199.001,296.98
				C2784.04,1226.779,2937.211,1289.771,3084.419,1491.402z"/>
		</g>
		<g style="opacity:0.3;">
			<path style="fill:#650000;" d="M2939.578,1028.018c-32.669,27.785-87.482,87.594-140.615,205.812
				c-9.596-4.858-14.923-7.052-14.923-7.052c90.368-244.858,199.001-296.98,199.001-296.98
				c126.235,87.393,101.378,561.604,101.378,561.604c-3.867-5.297-7.74-10.445-11.612-15.551
				c0.083-126.446-9.779-347.985-75.41-440.406C2983.931,1016.483,2957.294,1012.95,2939.578,1028.018z"/>
		</g>
		<g>
			<path style="fill:#650000;" d="M3084.419,1507.263c-4.975,0-9.771-2.344-12.81-6.509
				c-142.463-195.132-292.124-258.696-293.618-259.312c-7.871-3.262-11.78-12.163-8.831-20.156
				c91.543-248.032,202.349-303.545,207.021-305.791c5.139-2.471,11.201-1.978,15.889,1.26
				c131.992,91.382,109.221,555.757,108.186,575.479c-0.349,6.704-4.883,12.456-11.316,14.37
				C3087.446,1507.048,3085.925,1507.263,3084.419,1507.263z M2804.067,1218.586c38.735,19.17,151.003,83.145,266.123,227.969
				c3.411-146.904-7.49-425.151-88.327-497.505C2956.438,966.252,2875.29,1032.815,2804.067,1218.586z"/>
		</g>
		<g>
			<path style="fill:#650000;" d="M2974.106,916.694c2.96-1.882,5.85-3.127,8.942-4.353c3.079-1.167,6.229-2.19,9.49-2.996
				c6.471-1.655,13.297-2.769,20.895-1.648c2.504,0.369,4.233,2.698,3.864,5.2c-0.078,0.535-0.247,1.033-0.486,1.484l-0.072,0.132
				c-3.522,6.555-7.56,11.384-11.753,16.006c-2.073,2.332-4.213,4.519-6.377,6.638c-2.148,2.063-4.46,4.17-6.632,5.745l-0.039,0.027
				c-7.096,5.144-17.018,3.564-22.162-3.533c-5.144-7.095-3.562-17.017,3.533-22.161
				C2973.557,917.056,2973.85,916.858,2974.106,916.694z"/>
		</g>
		<g>
			<path style="fill:#FF761A;" d="M3253.967,1983.361c-93.213,176.729-274.791,214.612-274.791,214.612
				c-157.334,172.832-472.591,167.031-472.591,167.031s-315.257,5.801-472.591-167.031c0,0-181.578-37.884-274.791-214.612
				c0,0,5.483-26.464,46.992-40.648c0,0-48.442-37.521-51.342-126.339c0,0,47.626-10.604,68.516-79.664
				c0.997-3.399,1.948-6.933,2.855-10.649c18.942-78.667,96.431-617.599,680.361-617.599s661.419,538.932,680.361,617.599
				c18.941,78.622,71.371,90.313,71.371,90.313c-2.9,88.818-51.342,126.339-51.342,126.339
				C3248.484,1956.897,3253.967,1983.361,3253.967,1983.361z"/>
		</g>
		<g>
			<path style="fill:#FFFFFF;" d="M3253.967,1983.361c-93.213,176.729-274.791,214.612-274.791,214.612
				c-157.334,172.832-472.591,167.031-472.591,167.031s-315.257,5.801-472.591-167.031c0,0-181.578-37.884-274.791-214.612
				c0,0,5.483-26.464,46.992-40.648c0,0-48.442-37.521-51.342-126.339c0,0,2.9-0.635,7.522-2.673
				c14.274-6.072,45.224-24.923,60.994-76.991c4.486-2.13,151.534-70.51,344.667,76.719
				c196.124,149.54,247.919,149.54,338.549,149.54c90.63,0,142.425,0,338.549-149.54c193.133-147.229,340.18-78.848,344.667-76.719
				c20.89,69.06,68.516,79.664,68.516,79.664c-2.9,88.818-51.342,126.339-51.342,126.339
				C3248.484,1956.897,3253.967,1983.361,3253.967,1983.361z"/>
		</g>
		<g>
			<path style="fill:#FFFFFF;" d="M2247.366,1684.728c-17.598-10.513-42.957-24.081-66.793-31.078
				c-12.618-3.704-21.467-15.192-21.301-28.342c0.23-18.23,6.656-40.397,35.934-42.649c42.899-3.3,79.49,34.052,78.808,87.046
				C2273.84,1683.301,2259.04,1691.701,2247.366,1684.728z"/>
		</g>
		<g>
			<path style="fill:#FFFFFF;" d="M2765.804,1684.728c17.598-10.513,42.957-24.081,66.793-31.078
				c12.618-3.704,21.467-15.192,21.301-28.342c-0.23-18.23-6.656-40.397-35.934-42.649c-42.899-3.3-79.49,34.052-78.808,87.046
				C2739.331,1683.301,2754.131,1691.701,2765.804,1684.728z"/>
		</g>
		<g style="opacity:0.7;">
			<path style="fill:#FFFFFF;" d="M3186.946,1726.062c-18.942-78.667-96.431-617.599-680.361-617.599
				s-661.419,538.932-680.361,617.599c-0.906,3.716-1.858,7.25-2.855,10.649c-20.89,69.06-68.516,79.664-68.516,79.664
				c0.472,14.448,2.163,27.516,4.641,39.308c12.473-4.655,46.949-22.229,63.876-78.189c0.997-3.399,1.948-6.933,2.855-10.649
				c15.909-66.073,73.18-456.791,437.079-580.212c10.823,13.509,55.172,17.703,106.304,9.075
				c53.329-8.998,95.131-28.752,98.009-45.544c12.761-0.546,25.689-0.918,38.969-0.918c583.93,0,661.419,538.932,680.361,617.599
				c15.522,64.428,53.513,83.899,66.731,88.834c2.477-11.792,4.168-24.858,4.64-39.305
				C3258.317,1816.375,3205.888,1804.683,3186.946,1726.062z"/>
		</g>
		<g style="opacity:0.3;">
			<path style="fill:#650000;" d="M2506.339,2074.166c0,0-51.623,75.013-135.375,0c0,0,23.136,99.046,135.375,61.176
				c112.239,37.871,135.375-61.176,135.375-61.176C2557.963,2149.178,2506.339,2074.166,2506.339,2074.166z"/>
		</g>
		<g style="opacity:0.3;">
			<path style="fill:#650000;" d="M3206.975,1942.713c0,0,48.442-37.521,51.342-126.339c0,0-2.9-0.635-7.522-2.673
				c-23.745,38.427-42.939,99.033-130.352,123.548c0,0,20.281,36.359,72.342,53.892c0,0-52.601,52.017-114.069,36.658
				c-13.37-3.341-27.41,1.271-35.583,12.367c-44.246,60.062-199.493,230.491-536.547,230.491s-492.301-170.429-536.547-230.491
				c-8.174-11.095-22.213-15.707-35.583-12.367c-61.468,15.358-114.069-36.658-114.069-36.658
				c52.061-17.534,72.342-53.892,72.342-53.892c-87.413-24.515-106.607-85.121-130.352-123.548
				c-4.622,2.039-7.522,2.673-7.522,2.673c2.9,88.818,51.342,126.339,51.342,126.339c-41.508,14.184-46.992,40.648-46.992,40.648
				c93.213,176.729,274.791,214.612,274.791,214.612c157.334,172.832,472.591,167.031,472.591,167.031
				s315.257,5.801,472.591-167.031c0,0,181.577-37.884,274.791-214.612C3253.967,1983.361,3248.484,1956.897,3206.975,1942.713z"/>
		</g>
		<g>
			<path style="fill:#650000;" d="M3053.103,1774.251c-0.345-4.189-2.731-8.003-6.417-10.022
				c-22.294-12.212-45.705-20.516-67.482-26.167c-14.002-3.634-27.502-8.853-40.724-14.724
				c-148.059-65.749-259.766-16.273-313.513,19.383c-9.312,6.177-21.32,6.867-31.292,1.826
				c-62.238-31.464-130.189-18.173-168.444-5.863c-9.38,3.018-19.602,1.528-27.661-4.143
				c-47.91-33.718-162.477-92.372-315.658-25.397c-18.81,8.224-37.881,15.99-57.521,21.967
				c-19.436,5.915-39.857,14.032-59.35,25.183c-3.648,2.087-5.962,5.945-6.23,10.139l-2.586,40.51
				c-0.364,5.706,3.124,10.931,8.554,12.724c9.865,3.256,26.947,10.838,47.794,28.095c1.211,37.41,9.475,79.455,33.567,116.008
				c32.437,49.213,86.476,78.263,160.618,86.345c4.827,0.523,9.587,0.937,14.263,1.235c63.782,4.072,114.381-12.881,150.551-50.496
				c58.448-60.775,61.552-158.499,59.002-206.635c27.454-10.429,97.107-30.647,151.833,6.431
				c-2.566,43.161-1.777,151.368,62.339,215.615c36.859,36.94,87.762,52.955,151.459,47.704c4.669-0.385,9.421-0.886,14.237-1.499
				c73.98-9.451,127.473-39.495,158.994-89.3c23.412-36.993,30.897-79.184,31.416-116.609c20.525-17.64,37.464-25.536,47.267-28.974
				c5.396-1.893,8.788-7.182,8.318-12.88L3053.103,1774.251z M2342.189,1972.761c-29.638,30.752-73.689,43.196-131.021,36.937
				c-61.533-6.707-105.636-29.685-131.085-68.304c-35.777-54.275-28.049-127.132-21.158-162.869
				c1.759-9.121,7.757-16.817,16.009-21.085c156.169-80.767,266.909-15.316,304.591,13.723c5.879,4.531,9.472,11.306,9.973,18.712
				C2392.129,1828.787,2392.284,1920.77,2342.189,1972.761z M2935.085,1951.425c-24.73,39.083-68.401,62.873-129.799,70.716
				c-57.206,7.318-101.479-4.309-131.681-34.508c-51.047-51.056-52.594-143.026-50.682-181.98c0.364-7.413,3.83-14.254,9.625-18.893
				c37.139-29.73,146.65-97.218,304.285-19.353c8.329,4.114,14.469,11.698,16.396,20.785
				C2960.779,1823.796,2969.853,1896.498,2935.085,1951.425z"/>
		</g>
		<g>
			<path style="fill:#650000;" d="M2511.755,2380.891c-2.517,0-4.265-0.02-5.171-0.034c-16.785,0.273-320.713,2.734-480.916-168.54
				c-31.35-7.749-192.568-54.863-280.486-221.543c-1.716-3.252-2.249-7.002-1.504-10.605c0.618-2.993,6.177-25.591,35.718-42.729
				c-16.228-20.532-38.406-59.482-40.408-120.566c-0.249-7.622,4.963-14.346,12.412-16.001c1.58-0.396,43.247-11.47,59.39-78.535
				c1.089-4.526,2.375-10.615,3.95-18.061c13.552-64.019,45.286-213.945,144.419-351.216
				c124.809-172.822,308.989-260.449,547.424-260.449c238.44,0,422.622,87.627,547.429,260.454
				c99.133,137.271,130.864,287.197,144.414,351.221c1.577,7.441,2.862,13.525,3.95,18.052
				c16.145,67.065,57.813,78.14,59.578,78.579c7.261,1.802,12.471,8.481,12.226,15.957c-2.002,61.084-24.18,100.034-40.407,120.566
				c29.541,17.139,35.1,39.736,35.718,42.729c0.745,3.604,0.212,7.354-1.504,10.605c-87.917,166.68-249.136,213.794-280.486,221.543
				C2835.957,2374.333,2555.806,2380.891,2511.755,2380.891z M2506.584,2349.133c0.244,0,0.3,0.01,2.69,0.015
				c29.187,0,314.677-4.209,458.154-161.851c2.248-2.471,5.219-4.17,8.491-4.854c1.704-0.356,171.14-37.813,260.569-200.083
				c-3.45-5.991-12.502-17.07-34.636-24.643c-5.518-1.885-9.555-6.65-10.513-12.407c-0.955-5.752,1.323-11.567,5.935-15.137
				c1.575-1.26,38.726-31.689,44.563-103.12c-19.397-9.102-55.059-33.979-70.3-97.295c-1.14-4.736-2.493-11.108-4.143-18.906
				c-82.371-389.189-304.7-586.523-660.811-586.523c-356.106,0-578.433,197.334-660.808,586.519
				c-1.653,7.798-3.005,14.17-4.145,18.911c-15.242,63.315-50.901,88.193-70.298,97.295c5.837,71.431,42.991,101.865,44.648,103.189
				c4.529,3.608,6.775,9.438,5.784,15.146c-0.989,5.708-4.968,10.454-10.447,12.329c-22.014,7.529-31.087,18.53-34.612,24.688
				c89.434,162.246,258.84,199.683,260.564,200.044c3.257,0.688,6.233,2.388,8.472,4.849
				c150.552,165.415,457.464,161.963,460.554,161.836C2506.392,2349.133,2506.487,2349.133,2506.584,2349.133z"/>
		</g>
		<g>
			<path style="fill:#650000;" d="M2023.411,2209.768c-8.391-7.419-14.83-14.924-21.258-23.113
				c-6.285-8.132-12.03-16.66-17.112-25.579c-5.189-8.833-9.736-18.066-13.344-27.686c-3.663-9.57-6.332-19.592-7.63-29.836
				c-0.156-1.23,0.715-2.354,1.946-2.51c0.748-0.095,1.458,0.19,1.934,0.706l0.067,0.073c6.906,7.581,12.784,15.264,19.207,22.544
				c2.986,3.755,6.33,7.268,9.285,10.972c3.252,3.528,6.193,7.222,9.428,10.703c6.354,7.031,12.758,13.95,19.327,20.649
				c6.411,6.653,13.387,13.521,19.355,19.485l0.505,0.505c6.191,6.191,6.193,16.228,0.002,22.419
				C2039.177,2215.051,2029.639,2215.251,2023.411,2209.768z"/>
		</g>
		<g>
			<path style="fill:#650000;" d="M2968.555,2186.177c5.967-5.964,12.944-12.832,19.354-19.485
				c6.57-6.699,12.974-13.618,19.327-20.649c3.236-3.481,6.177-7.175,9.429-10.703c2.954-3.704,6.299-7.217,9.285-10.972
				c6.422-7.28,12.301-14.963,19.207-22.544l0.057-0.063c0.836-0.916,2.257-0.981,3.174-0.146c0.558,0.508,0.8,1.245,0.715,1.941
				c-1.298,10.244-3.967,20.266-7.629,29.836c-3.608,9.619-8.156,18.853-13.344,27.686c-5.082,8.918-10.826,17.446-17.112,25.579
				c-6.428,8.188-12.867,15.693-21.259,23.113c-6.558,5.801-16.577,5.186-22.377-1.372c-5.574-6.301-5.225-15.801,0.631-21.68
				L2968.555,2186.177z"/>
		</g>
		<g>
			<path style="fill:#650000;" d="M2506.585,1946.474c0,0-33.943-0.345-55.939,7.987c-6.738,2.552-10.701,9.636-9.451,16.732
				c3.536,20.064,16.695,60.247,65.39,60.247c48.695,0,61.855-40.183,65.391-60.247c1.25-7.096-2.713-14.18-9.451-16.732
				C2540.528,1946.129,2506.585,1946.474,2506.585,1946.474z"/>
		</g>
		<g>
			<path style="fill:#650000;" d="M2518.783,2064.028c0.371,0.41,1.5,1.611,2.356,2.441l2.834,2.791
				c1.935,1.863,4.006,3.623,6.111,5.322c4.225,3.386,8.636,6.501,13.226,9.18c9.191,5.374,19.065,8.821,29.396,9.8
				c10.311,0.928,21.172-0.759,31.871-4.875c10.743-4.001,21.394-10.007,31.812-17.068l0.021-0.015
				c1.688-1.143,3.984-0.703,5.128,0.986c0.868,1.279,0.822,2.91,0.013,4.124c-7.288,10.908-16.584,20.864-28.179,28.682
				c-5.78,3.882-12.146,7.261-19.033,9.602c-6.826,2.512-14.177,4.023-21.635,4.412c-14.954,1.023-30.105-2.456-43.289-8.708
				c-6.631-3.113-12.847-6.902-18.621-11.218c-2.867-2.188-5.663-4.456-8.347-6.897c-1.343-1.223-2.688-2.449-3.977-3.784
				c-1.361-1.418-2.407-2.507-4.083-4.497c-5.642-6.697-4.788-16.697,1.908-22.336c6.548-5.518,16.257-4.822,21.958,1.475
				L2518.783,2064.028z"/>
		</g>
		<g>
			<path style="fill:#650000;" d="M2518.783,2084.304c-1.677,1.99-2.723,3.079-4.084,4.497c-1.288,1.335-2.633,2.561-3.977,3.784
				c-2.683,2.441-5.479,4.709-8.347,6.897c-5.774,4.316-11.99,8.105-18.619,11.218c-13.184,6.252-28.335,9.731-43.29,8.708
				c-7.456-0.388-14.807-1.899-21.635-4.412c-6.886-2.341-13.253-5.72-19.033-9.602c-11.593-7.817-20.89-17.773-28.179-28.682
				c-1.133-1.697-0.676-3.989,1.021-5.122c1.285-0.859,2.914-0.806,4.121,0.01l0.022,0.017
				c10.417,7.061,21.067,13.066,31.812,17.068c10.698,4.116,21.559,5.803,31.87,4.875c10.332-0.979,20.206-4.426,29.397-9.8
				c4.589-2.678,9.001-5.793,13.226-9.18c2.104-1.699,4.176-3.459,6.111-5.322l2.834-2.791c0.856-0.83,1.984-2.031,2.356-2.441
				l0.509-0.564c5.868-6.497,15.891-7.007,22.389-1.138C2523.64,2068.064,2524.248,2077.8,2518.783,2084.304z"/>
		</g>
		<g>
			<path style="fill:#650000;" d="M2340.819,1935.488c-19.165-11.736-37.677-23.203-56.051-34.038
				c-18.368-10.847-36.519-21.228-54.805-30.781c-9.012-4.995-18.368-9.233-27.372-13.948c-9.331-4.089-18.257-8.867-27.598-12.642
				c-18.253-8.601-36.965-15.278-55.315-23.545l-1.927-0.867c-17.126-7.715-24.756-27.852-17.042-44.978
				c6.871-15.254,23.61-22.966,39.287-19.019c22.972,5.764,45.363,14.199,65.989,25.583c10.529,5.327,20.319,11.865,30.171,18.196
				c4.812,3.34,9.512,6.831,14.187,10.332c2.325,1.765,4.709,3.442,6.974,5.281l6.697,5.63
				c17.891,14.897,34.252,31.443,48.428,49.714c14.187,18.235,26.672,37.729,35.193,59.78c0.896,2.319-0.258,4.924-2.577,5.823
				c-1.351,0.52-2.8,0.347-3.953-0.349L2340.819,1935.488z"/>
		</g>
		<g>
			<path style="fill:#650000;" d="M2665.537,1930.188c8.521-22.051,21.005-41.545,35.193-59.78
				c14.175-18.271,30.537-34.817,48.428-49.714l6.697-5.63c2.263-1.838,4.648-3.516,6.974-5.281
				c4.675-3.501,9.374-6.992,14.187-10.332c9.852-6.331,19.642-12.869,30.171-18.196c20.626-11.384,43.015-19.819,65.989-25.583
				c18.219-4.573,36.693,6.492,41.265,24.709c4.072,16.228-4.261,32.659-19.006,39.287l-1.941,0.867
				c-18.35,8.267-37.062,14.944-55.315,23.545c-9.341,3.774-18.267,8.552-27.598,12.642c-9.005,4.714-18.359,8.953-27.372,13.948
				c-18.286,9.553-36.437,19.934-54.806,30.781c-18.374,10.835-36.885,22.302-56.051,34.038l-0.265,0.161
				c-2.12,1.299-4.891,0.632-6.189-1.489C2665.14,1932.925,2665.06,1931.445,2665.537,1930.188z"/>
		</g>
		<g>
			<path style="fill:#FF761A;" d="M3016.606,2840.35c-39.964,417.91-372.194,408.746-532.963,382.477
				c-69.338-11.302-127.017-58.901-149.774-123.708c-3.105-8.705-5.549-17.665-7.28-26.93
				c-20.822-109.708,39.709-218.704,120.959-216.617c81.81,2.036,115.104,65.214,115.104,65.214
				c197.984-265.082,382.885-44.189,382.885-44.189l70.356-227.46C3022.052,2721.122,3021.951,2784.554,3016.606,2840.35z"/>
		</g>
		<g style="opacity:0.3;">
			<path style="fill:#650000;" d="M2581.456,3085.24c0,0,72.272-53.727,15.545-212.999c0,0-15.272,27.272-40.363,44.727
				C2556.638,2916.968,2595.365,2964.422,2581.456,3085.24z"/>
		</g>
		<g style="opacity:0.3;">
			<path style="fill:#650000;" d="M3016.606,2840.35c-39.964,417.91-372.194,408.746-532.963,382.477
				c-69.338-11.302-127.017-58.901-149.774-123.708c12.517,19.579,85.417,118.598,233.278,30.238
				c12.972-7.752,28.334-10.599,43.123-7.49C2686.424,3137.877,2933.761,3162.986,3016.606,2840.35z"/>
		</g>
		<g>
			<path style="fill:#650000;" d="M2576.283,2912.7c1.306,2.3,2.106,3.833,2.965,5.698c0.87,1.79,1.647,3.562,2.396,5.33
				c1.61,3.525,2.749,7.131,4.048,10.698c2.437,7.151,4.373,14.419,5.857,21.731c3.104,14.597,4.586,29.395,4.924,44.07
				c0.197,14.68-0.438,29.29-2.819,43.596c-1.918,14.343-5.646,28.311-9.792,41.917c-0.397,1.304-1.774,2.039-3.076,1.641
				c-1.1-0.334-1.794-1.37-1.746-2.466l0.009-0.176c0.316-7.043,1.062-13.962,1.178-20.916c-0.076-6.97,0.315-13.85-0.208-20.742
				l-0.541-10.283l-1.116-10.208c-0.305-3.391-0.845-6.76-1.388-10.115c-0.581-3.35-0.928-6.714-1.693-10.02
				c-2.454-13.311-6.46-26.194-10.83-38.687c-2.175-6.262-4.821-12.305-7.319-18.313c-1.331-2.947-2.715-5.911-4.098-8.745
				c-0.684-1.443-1.376-2.866-2.103-4.207l-1.938-3.633l-0.47-0.881c-4.119-7.722-1.198-17.322,6.525-21.44
				C2562.637,2902.502,2572.051,2905.273,2576.283,2912.7z"/>
		</g>
		<g>
			<g>
				
					<ellipse transform="matrix(0.0183 -0.9998 0.9998 0.0183 -687.7283 5474.6382)" style="fill:#FFFFFF;" cx="2444.115" cy="3087.547" rx="61.597" ry="43.118"/>
			</g>
			<g>
				
					<ellipse transform="matrix(0.0183 -0.9998 0.9998 0.0183 -617.9999 5320.0122)" style="fill:#FFFFFF;" cx="2400.234" cy="2974.725" rx="34.344" ry="24.041"/>
			</g>
			<g>
				
					<ellipse transform="matrix(0.0183 -0.9998 0.9998 0.0183 -526.596 5458.144)" style="fill:#FFFFFF;" cx="2516.28" cy="2997.243" rx="34.344" ry="24.041"/>
			</g>
			<g>
				
					<ellipse transform="matrix(0.0183 -0.9998 0.9998 0.0183 -534.1357 5356.7412)" style="fill:#FFFFFF;" cx="2460.873" cy="2950.381" rx="34.344" ry="24.041"/>
			</g>
		</g>
		<g>
			<path style="fill:#650000;" d="M2943.536,2878.286c-29.285-23.691-60.708-43.875-93.989-57.693
				c-16.656-6.829-33.866-11.892-51.35-14.175c-17.466-2.302-35.083-1.926-52.238,1.025c-17.172,2.983-33.794,8.65-49.749,16.042
				l-11.687,6.235c-1.927,1.079-3.931,1.997-5.8,3.201l-5.594,3.638c-3.708,2.461-7.512,4.739-11.156,7.317l-10.732,8.086
				c-1.78,1.36-3.605,2.651-5.35,4.065l-5.092,4.46l-10.197,8.899c-6.625,6.172-13.036,12.644-19.515,19.019
				c-6.082,6.833-12.283,13.55-18.295,20.466c-5.698,7.222-11.627,14.26-17.448,21.404l-0.331,0.408
				c-5.565,6.829-15.614,7.856-22.444,2.29c-1.653-1.345-3-3.03-3.962-4.79l-0.001-0.002c-0.433-0.791-1.565-2.605-2.487-3.989
				c-1.016-1.472-2.051-2.974-3.152-4.436c-2.206-2.947-4.625-5.771-7.084-8.569c-5.052-5.496-10.624-10.503-16.504-15.088
				c-11.881-9.019-25.396-15.671-39.728-19.731c-3.612-0.933-7.157-2.112-10.903-2.563c-3.726-0.488-7.338-1.558-11.147-1.626
				c-3.741-0.225-7.612-0.63-11.243-0.754l-5.192,0.085l-5.157,0.515c-13.687,1.831-26.975,7.483-38.546,16.37
				c-23.403,17.649-39.901,45.581-49.275,75.164c-9.48,29.773-12.03,61.96-7.996,93.105c3.798,31.113,15.718,60.205,34.613,84.763
				c19.025,24.333,44.645,43.403,73.306,55.085l10.903,3.989c3.687,1.167,7.443,2.124,11.156,3.213
				c3.693,1.187,7.567,1.633,11.337,2.502c3.68,0.835,7.781,1.45,11.893,2.053c16.32,2.612,32.747,4.417,49.176,6.033
				c32.886,2.861,65.917,3.667,98.707,1.826c65.431-3.647,130.574-18.101,187.499-48.691
				c56.844-30.339,104.354-77.131,134.801-134.336l5.941-10.574c1.794-3.63,3.408-7.361,5.125-11.035
				c3.274-7.427,7.025-14.626,9.93-22.227l8.464-22.92l2.122-5.728l1.715-5.884l3.395-11.782l3.403-11.78l1.704-5.891l1.292-6.016
				l5.183-24.063c1.968-7.964,2.877-16.179,4.153-24.307l3.652-24.426c7.573-65.591,6.703-132.327,1.238-198.674l-0.009-0.107
				c-0.719-8.73,5.774-16.392,14.504-17.109c8.729-0.72,16.389,5.774,17.108,14.504c5.593,67.957,6.556,136.697-1.344,205.139
				l-3.811,25.579c-1.337,8.518-2.307,17.083-4.364,25.508l-5.468,25.361l-1.371,6.34l-1.798,6.255l-3.605,12.51l-3.613,12.507
				l-1.831,6.245l-2.258,6.128l-9.058,24.509c-3.12,8.132-7.137,15.94-10.675,23.923c-1.852,3.958-3.6,7.961-5.541,11.88
				l-6.421,11.477c-32.922,61.946-85.502,113.948-147.568,146.943c-62.163,33.367-131.901,48.557-200.72,52.41
				c-34.517,1.936-69.045,1.082-103.309-1.902c-17.112-1.677-34.204-3.562-51.173-6.274c-4.226-0.623-8.459-1.25-13.01-2.246
				c-4.442-0.999-8.979-1.592-13.335-2.952c-4.377-1.262-8.79-2.41-13.129-3.792l-12.838-4.695
				c-33.765-13.738-63.979-36.208-86.504-65.046c-22.383-28.818-36.719-64.294-41.024-100.142
				c-4.598-35.662-1.737-72.29,9.218-106.785c5.403-17.261,13.009-33.96,22.864-49.514c9.933-15.476,22.231-29.915,37.589-41.416
				c15.146-11.621,33.798-19.89,53.549-22.473l7.419-0.723l7.446-0.132c4.784,0.144,9.31,0.598,13.976,0.911
				c4.641,0.154,9.232,1.36,13.846,2.019c4.636,0.618,9.141,2.021,13.679,3.218c18.071,5.107,35.3,13.621,50.26,24.998
				c7.427,5.762,14.408,12.061,20.762,18.984c3.116,3.521,6.168,7.107,9.015,10.908c1.431,1.904,2.797,3.87,4.165,5.869
				c1.392,2.136,2.548,3.865,4.139,6.77l0.002,0.005l-26.736-2.095c5.938-7.744,11.766-15.593,17.826-23.262
				c6.335-7.48,12.914-14.797,19.374-22.195c6.94-7.024,13.813-14.124,20.995-20.947l11.311-9.736l5.662-4.858
				c1.948-1.555,4.003-3.003,6-4.509l12.076-8.933c4.1-2.891,8.518-5.386,12.769-8.079l6.437-3.96
				c2.152-1.309,4.487-2.356,6.722-3.542c4.529-2.285,9.012-4.646,13.584-6.843c18.595-8.308,38.452-14.116,58.785-16.909
				c40.84-5.933,82.692,2.957,118.271,20.649c17.861,8.909,34.359,20.083,49.141,32.966c14.756,12.927,28.087,27.246,38.668,43.789
				c0.785,1.226,0.426,2.856-0.801,3.643c-0.98,0.627-2.218,0.525-3.077-0.168L2943.536,2878.286z"/>
		</g>
		<g>
			<g>
				<path style="fill:#D0CFE5;" d="M1946.32,3177.263l-167.086-775.275c-10.69-49.602-54.55-85.016-105.29-85.016H630.759
					c-45.973,0-79.842,42.998-69.074,87.692l186.143,772.598H1946.32z"/>
			</g>
			<g>
				<g>
					<path style="fill:#650000;" d="M1193.483,2789.441c-66.769-4.923-178.717,147.742,7.835,139.179
						C1387.869,2920.057,1281.322,2795.918,1193.483,2789.441z"/>
				</g>
				<g>
					
						<ellipse transform="matrix(0.1602 -0.9871 0.9871 0.1602 -1827.976 3388.3459)" style="fill:#650000;" cx="1077.274" cy="2768.437" rx="42.392" ry="42.392"/>
				</g>
				<g>
					<circle style="fill:#650000;" cx="1298.995" cy="2762.502" r="42.392"/>
				</g>
				<g>
					
						<ellipse transform="matrix(0.2298 -0.9732 0.9732 0.2298 -1720.8868 3226.7854)" style="fill:#650000;" cx="1178.166" cy="2700.61" rx="54.262" ry="54.262"/>
				</g>
			</g>
			<g style="opacity:0.3;">
				<path style="fill:#650000;" d="M1723.235,2340.897c-1.038-4.817-2.478-9.453-4.118-13.983c0.003,0.002,0.006,0.003,0.009,0.005
					c-13.825-6.397-29.156-9.947-45.182-9.947h-21.652l0,0c163.584,641.182-0.625,773.745-624.754,773.745H726.977l6.133,25.454
					h1157.211L1723.235,2340.897z"/>
			</g>
			<g style="opacity:0.7;">
				<path style="fill:#FFFFFF;" d="M1763.461,2364.925c-19.522-29.222-52.669-47.953-89.516-47.953H630.759
					c-45.973,0-79.842,42.999-69.074,87.692l186.143,772.598h41.096L602.694,2404.3c-5.722-23.751,12.276-46.601,36.707-46.601
					h59.748c10.681,0,20.906,3.569,29.867,9.381c17.049,11.057,51.477,18.619,91.222,18.619c39.745,0,74.173-7.562,91.222-18.619
					c8.961-5.812,19.186-9.381,29.867-9.381h783.527C1738.389,2357.699,1751.403,2360.287,1763.461,2364.925z"/>
			</g>
			<g>
				<path style="fill:#650000;" d="M1946.321,3193.122H747.83c-7.329,0-13.704-5.02-15.42-12.144l-186.145-772.598
					c-6.277-26.06-0.364-53.081,16.223-74.141c16.585-21.055,41.47-33.13,68.272-33.13h1043.186
					c57.813,0,108.613,41.021,120.796,97.539l167.085,775.273c1.008,4.683-0.154,9.575-3.167,13.306
					C1955.649,3190.954,1951.113,3193.122,1946.321,3193.122z M760.322,3161.404h1166.355l-162.947-756.074
					c-9.053-42.007-46.814-72.5-89.785-72.5H630.759c-17.019,0-32.82,7.671-43.354,21.04c-10.532,13.374-14.287,30.532-10.3,47.08
					L760.322,3161.404z"/>
			</g>
			<g>
				<g>
					<path style="fill:#D0CFE5;" d="M2551.843,3236.461H751.493c-22.856,0-41.384-18.528-41.384-41.384l0,0
						c0-22.855,18.528-41.384,41.384-41.384h1800.35c22.855,0,41.384,18.528,41.384,41.384l0,0
						C2593.227,3217.933,2574.699,3236.461,2551.843,3236.461z"/>
				</g>
				<g style="opacity:0.3;">
					<path style="fill:#650000;" d="M2540.219,3200.832H763.118c-21.094,0-39.256-9.643-47.79-23.569
						c-3.31,5.401-5.218,11.427-5.218,17.814c0,22.856,23.733,41.384,53.008,41.384h1777.101c29.275,0,53.008-18.528,53.008-41.384
						c0-6.387-1.908-12.413-5.218-17.814C2579.474,3191.189,2561.313,3200.832,2540.219,3200.832z"/>
				</g>
				<g>
					<path style="fill:#650000;" d="M2551.843,3252.321H751.494c-31.565,0-57.244-25.679-57.244-57.246
						c0-31.563,25.679-57.241,57.244-57.241h1800.349c31.565,0,57.244,25.679,57.244,57.241
						C2609.087,3226.643,2583.408,3252.321,2551.843,3252.321z M751.494,3169.553c-14.075,0-25.525,11.45-25.525,25.522
						c0,14.077,11.45,25.527,25.525,25.527h1800.349c14.075,0,25.525-11.45,25.525-25.527c0-14.072-11.45-25.522-25.525-25.522
						H751.494z"/>
				</g>
				<g>
					<path style="fill:#650000;" d="M1946.311,3252.321c-3.435,0-6.895-1.108-9.802-3.398
						c-19.514-15.366-29.409-32.969-29.409-52.314c0-31.318,26.399-53.008,29.409-55.376c6.882-5.42,16.855-4.229,22.273,2.651
						c5.403,6.861,4.238,16.797-2.593,22.227c-4.858,3.906-17.439,17.017-17.368,30.615c0.046,9.092,5.869,18.267,17.312,27.276
						c6.882,5.42,8.069,15.391,2.649,22.27C1955.652,3250.246,1951.003,3252.321,1946.311,3252.321z"/>
				</g>
			</g>
		</g>
	</g>
	<g>
		<g>
			<path style="fill:#FFFFFF;" d="M1363.336,1690.233c33.213-50.926,50.664-112.716,45.885-178.034
				c-11.598-158.539-149.521-277.658-308.06-266.06c-158.539,11.598-277.658,149.522-266.06,308.06s149.522,277.657,308.06,266.059
				c44.098-3.226,85.129-16.251,121.162-36.749l132.266,33.76L1363.336,1690.233z"/>
			<path style="fill:#650000;" d="M1121.716,1823.547c-69.59,0-136.118-24.673-189.321-70.625
				c-58.691-50.684-94.128-121.196-99.785-198.54c-5.659-77.344,19.141-152.261,69.829-210.947
				c50.688-58.691,121.199-94.131,198.54-99.79c77.31-5.63,152.256,19.141,210.95,69.834
				c58.691,50.684,94.128,121.196,99.785,198.54c4.646,63.521-11.147,125.269-45.681,178.648l34.05,130.073l-135.403-34.56
				c-37.415,21.118-78.23,33.423-121.335,36.577C1136.113,1823.283,1128.896,1823.547,1121.716,1823.547z M1122.6,1247.854
				c-7.061,0-14.143,0.259-21.255,0.781c-76.011,5.557-145.308,40.386-195.122,98.066c-49.817,57.681-74.189,131.309-68.628,207.319
				c5.562,76.011,40.388,145.303,98.069,195.122c57.681,49.814,131.282,74.209,207.314,68.623
				c42.695-3.125,83.105-15.381,120.11-36.431l0.876-0.498l129.131,32.959l-32.458-124.004l0.603-0.928
				c34.351-52.666,50.081-113.691,45.488-176.484c-5.562-76.011-40.388-145.303-98.069-195.122
				C1256.377,1272.107,1190.986,1247.854,1122.6,1247.854z"/>
		</g>
		<g style="opacity:0.5;">
			<g>
				<path style="fill:#FFFFFF;" d="M1105.661,1307.649c148.097-10.834,278.171,92.409,304.121,235.286
					c0.333-10.142,0.196-20.387-0.561-30.735c-11.598-158.539-149.521-277.658-308.06-266.059
					c-158.539,11.598-277.658,149.521-266.06,308.06c0.76,10.393,2.094,20.604,3.91,30.633
					C843.822,1439.637,957.515,1318.486,1105.661,1307.649z"/>
			</g>
		</g>
		<g>
			<path style="fill:#650000;" d="M1121.689,1841.604c-73.918,0.005-144.587-26.206-201.096-75.015
				c-62.341-53.838-99.985-128.735-105.994-210.889c-6.011-82.153,20.332-161.729,74.172-224.072
				c53.84-62.339,128.738-99.98,210.891-105.991c82.141-5.996,161.726,20.332,224.067,74.175
				c62.341,53.838,99.985,128.735,105.994,210.889c4.739,64.79-10.54,127.842-44.241,182.959l30.994,118.403
				c1.843,7.041-0.176,14.536-5.308,19.697c-5.132,5.161-12.62,7.217-19.663,5.425l-124.385-31.748
				c-37.981,20.278-79.136,32.158-122.458,35.327C1136.98,1841.325,1129.314,1841.604,1121.689,1841.604z M1122.571,1265.915
				c-6.611,0-13.247,0.239-19.91,0.728c-71.199,5.21-136.111,37.832-182.773,91.86c-46.663,54.028-69.492,122.998-64.282,194.199
				c5.208,71.201,37.832,136.108,91.86,182.773c54.028,46.66,122.979,69.521,194.197,64.282
				c39.995-2.925,77.844-14.404,112.495-34.121c4.629-2.632,10.093-3.369,15.249-2.046l98.459,25.127l-24.419-93.281
				c-1.467-5.61-0.5-11.577,2.668-16.436c32.173-49.326,46.904-106.489,42.603-165.303c-5.208-71.201-37.832-136.108-91.86-182.773
				C1247.883,1288.63,1186.631,1265.915,1122.571,1265.915z"/>
		</g>
		<g style="opacity:0.3;">
			<path style="fill:#650000;" d="M1365.032,1687.518c-80.756,64.345-190.173,90.354-297.193,60.364
				c-118.687-33.259-204.111-126.883-232.558-238.306c-1.186,14.629-1.283,29.531-0.178,44.624
				c11.598,158.539,149.522,277.658,308.06,266.059c44.098-3.226,85.128-16.251,121.162-36.749l132.267,33.76l-33.254-127.037
				C1363.919,1689.34,1364.459,1688.417,1365.032,1687.518z"/>
		</g>
		<g>
			<path style="fill:#FF001F;" d="M1211.916,1435.108L1211.916,1435.108c-31.998-23.593-76.31-11.799-99.903,20.199l-3.672,4.98
				l-4.98-3.672c-31.998-23.593-77.816-21.76-101.409,10.238l0,0c-23.593,31.998-16.779,77.063,15.219,100.656l4.98,3.672
				l100.601,74.175c8.436,6.22,20.316,4.423,26.536-4.012l74.175-100.601l3.672-4.98
				C1250.727,1503.766,1243.913,1458.701,1211.916,1435.108z"/>
		</g>
	</g>
</g>
</svg>
